# File created by Blade
# Date/Time:  Fri Jan 16 17:52:57 2015
#---------------------------------------------------------
:version 1.10
:name HOM
:units
  mass 1.0
  length 1.000000
  angle deg
:documentation
     Acclaim Skeleton File
:root
   axis xyz
   order TX TY TZ RX RY RZ
   position 0.000000 0.000000 0.000000
   orientation 0 0 0
:bonedata
   begin
      id 1
      name Spine_dum
      direction 0.000000 1.000000 0.000000
      length 7.170412
      axis 0.0 0.0 0.0 xyz
   end
   begin
      id 2
      name LeftUpLeg_dum
      direction 1.000000 0.000000 0.000000
      length 4.318350
      axis 0.0 0.0 0.0 xyz
   end
   begin
      id 3
      name RightUpLeg_dum
      direction -1.000000 0.000000 0.000000
      length 4.318350
      axis 0.0 0.0 0.0 xyz
   end
   begin
      id 4
      name Spine
      direction 0.000000 1.000000 0.000000
      length 0.000000
      axis 0.0 0.0 0.0 xyz
      dof rx ry rz
   end
   begin
      id 5
      name Spine_dum1
      direction 0.000000 1.000000 0.000000
      length 14.276153
      axis 0.0 0.0 0.0 xyz
   end
   begin
      id 6
      name Spine_dum2
      direction 0.000000 1.000000 0.000000
      length 10.718243
      axis 0.0 0.0 0.0 xyz
   end
   begin
      id 7
      name Spine_dum3
      direction 0.000000 1.000000 0.000000
      length 10.718243
      axis 0.0 0.0 0.0 xyz
   end
   begin
      id 8
      name Head
      direction 0.000000 1.000000 0.000000
      length 4.527550
      axis 0.0 0.0 0.0 xyz
      dof rx ry rz
   end
   begin
      id 9
      name LeftShoulder
      direction 1.000000 0.000000 0.000000
      length 7.058872
      axis 0.0 0.0 -90.0 xyz
      dof rx ry rz
   end
   begin
      id 10
      name LeftArm
      direction 1.000000 0.000000 0.000000
      length 10.955525
      axis 0.0 0.0 -90.0 xyz
      dof rx ry rz
   end
   begin
      id 11
      name LeftForeArm
      direction 1.000000 0.000000 0.000000
      length 8.193716
      axis 0.0 0.0 -90.0 xyz
      dof ry rz rx
   end
   begin
      id 12
      name LeftHand
      direction 0.000000 0.000000 0.000000
      length 0.000000
      axis 0.0 0.0 -90.0 xyz
      dof rx ry rz
   end
   begin
      id 13
      name LeftHand_dum1
      direction 0.000000 0.000000 0.000000
      length 0.000000
      axis 0.0 0.0 -90.0 xyz
   end
   begin
      id 14
      name LeftHand_dum2
      direction 1.000000 0.000000 0.000000
      length 3.937000
      axis 0.0 0.0 -90.0 xyz
   end
   begin
      id 15
      name LeftHandThumb1
      direction 0.000000 0.000000 1.000000
      length 3.937000
      axis 0.0 0.0 -90.0 xyz
      dof rx rz ry
   end
   begin
      id 16
      name RightShoulder
      direction -1.000000 0.000000 0.000000
      length 7.058872
      axis 0.0 0.0 90.0 xyz
      dof rx ry rz
   end
   begin
      id 17
      name RightArm
      direction -1.000000 0.000000 0.000000
      length 10.955525
      axis 0.0 0.0 90.0 xyz
      dof rx ry rz
   end
   begin
      id 18
      name RightForeArm
      direction -1.000000 0.000000 0.000000
      length 8.193716
      axis 0.0 0.0 90.0 xyz
      dof ry rz rx
   end
   begin
      id 19
      name RightHand
      direction 0.000000 0.000000 0.000000
      length 0.000000
      axis 0.0 0.0 90.0 xyz
      dof rx ry rz
   end
   begin
      id 20
      name RightHand_dum1
      direction 0.000000 0.000000 0.000000
      length 0.000000
      axis 0.0 0.0 90.0 xyz
   end
   begin
      id 21
      name RightHand_dum2
      direction -1.000000 0.000000 0.000000
      length 3.937000
      axis 0.0 0.0 90.0 xyz
   end
   begin
      id 22
      name RightHandThumb1
      direction 0.000000 0.000000 1.000000
      length 3.937000
      axis 0.0 0.0 90.0 xyz
      dof rx rz ry
   end
   begin
      id 23
      name LeftUpLeg
      direction 0.000000 -1.000000 0.000000
      length 17.323638
      axis 0.0 0.0 0.0 xyz
      dof rx ry rz
   end
   begin
      id 24
      name LeftLeg
      direction 0.000000 -1.000000 0.000000
      length 16.270368
      axis 0.0 0.0 0.0 xyz
      dof rx ry rz
   end
   begin
      id 25
      name LeftFoot
      direction 0.000000 -0.258819 0.965926
      length 4.922846
      axis 15.0 0.0 0.0 xyz
      dof rx ry rz
   end
   begin
      id 26
      name LeftToeBase
      direction 0.000000 0.000000 1.000000
      length 2.952750
      axis 0.0 0.0 0.0 xyz
      dof rx ry rz
   end
   begin
      id 27
      name RightUpLeg
      direction 0.000000 -1.000000 0.000000
      length 17.323638
      axis 0.0 0.0 0.0 xyz
      dof rx ry rz
   end
   begin
      id 28
      name RightLeg
      direction 0.000000 -1.000000 0.000000
      length 16.270368
      axis 0.0 0.0 0.0 xyz
      dof rx ry rz
   end
   begin
      id 29
      name RightFoot
      direction 0.000000 -0.258819 0.965926
      length 4.922846
      axis 15.0 0.0 0.0 xyz
      dof rx ry rz
   end
   begin
      id 30
      name RightToeBase
      direction 0.000000 0.000000 1.000000
      length 2.952750
      axis 0.0 0.0 0.0 xyz
      dof rx ry rz
   end
:hierarchy
   begin
      root Spine_dum LeftUpLeg_dum RightUpLeg_dum
      Spine_dum Spine
      LeftUpLeg_dum LeftUpLeg
      RightUpLeg_dum RightUpLeg
      Spine Spine_dum1 Spine_dum2 Spine_dum3
      Spine_dum1 Head
      Spine_dum2 LeftShoulder
      Spine_dum3 RightShoulder
      LeftShoulder LeftArm
      LeftArm LeftForeArm
      LeftForeArm LeftHand
      LeftHand LeftHand_dum1 LeftHand_dum2
      LeftHand_dum1 LeftHandThumb1
      RightShoulder RightArm
      RightArm RightForeArm
      RightForeArm RightHand
      RightHand RightHand_dum1 RightHand_dum2
      RightHand_dum1 RightHandThumb1
      LeftUpLeg LeftLeg
      LeftLeg LeftFoot
      LeftFoot LeftToeBase
      RightUpLeg RightLeg
      RightLeg RightFoot
      RightFoot RightToeBase
   end

# File created by Blade
# Date/Time:  Fri Jan 16 17:53:05 2015
# Frame Rate: 120.000 fps
#------------------------------------------------------
:FULLY-SPECIFIED
:DEGREES
1303
root -2.652766 35.266659 -10.862840 -1.800093 13.281066 -9.458249
Spine -1.672390 -16.002282 12.174997
Head 3.771991 0.766192 -5.674129
LeftShoulder -23.158662 15.141329 -9.870382
LeftArm 25.265041 -23.203967 -70.195285
LeftForeArm 4.186874 -0.000000 125.266515
LeftHand 1.840154 -0.000000 14.885875
LeftHandThumb1 -26.253704 0.000000 33.147579
RightShoulder -7.100153 -7.594385 -0.726226
RightArm 1.350378 -24.759237 70.122688
RightForeArm -18.330634 -0.000000 21.187964
RightHand 0.562387 -0.000000 5.165076
RightHandThumb1 -24.326973 -0.000000 -32.862282
LeftUpLeg 9.765507 -5.541279 -2.399441
LeftLeg -8.827123 -0.000000 0.000000
LeftFoot -13.480098 26.164453 -3.240207
LeftToeBase 18.769778 -0.000000 -0.000000
RightUpLeg -2.996565 42.598607 5.712213
RightLeg 109.034114 -0.000000 -0.000000
RightFoot 53.444710 -11.764015 -9.230455
RightToeBase -4.377613 -0.000000 0.000000
1304
root -2.648705 35.274348 -10.881319 -1.750065 14.039210 -9.513467
Spine -1.850007 -16.707913 12.272033
Head 3.729485 0.672924 -5.714731
LeftShoulder -23.064606 14.938271 -9.839512
LeftArm 25.329057 -23.032820 -70.186629
LeftForeArm 4.492343 -0.000000 125.068785
LeftHand 1.805011 0.000000 14.998320
LeftHandThumb1 -26.253704 0.000000 33.147579
RightShoulder -7.165827 -7.625119 -0.686084
RightArm 1.231063 -24.613869 70.172982
RightForeArm -18.368833 -0.000000 21.131115
RightHand 0.584114 -0.000000 5.660946
RightHandThumb1 -24.326973 -0.000000 -32.862282
LeftUpLeg 9.582317 -5.770227 -2.336867
LeftLeg -8.823826 -0.000000 0.000000
LeftFoot -13.339511 25.863708 -3.126966
LeftToeBase 18.787223 -0.000000 -0.000000
RightUpLeg -3.139725 42.686319 5.445597
RightLeg 109.167719 -0.000000 -0.000000
RightFoot 53.542606 -11.491192 -9.406416
RightToeBase -4.195287 -0.000000 0.000000
1305
root -2.647751 35.283554 -10.899005 -1.744029 14.873218 -9.581207
Spine -1.984853 -17.478329 12.360206
Head 3.674271 0.568064 -5.734396
LeftShoulder -23.019927 14.756127 -9.829081
LeftArm 25.458276 -22.785298 -70.176577
LeftForeArm 4.533129 0.000000 124.862875
LeftHand 2.158516 0.000000 14.555438
LeftHandThumb1 -26.253704 0.000000 33.147579
RightShoulder -7.197139 -7.604694 -0.628889
RightArm 1.033181 -24.538565 70.219562
RightForeArm -18.318048 -0.000000 21.104521
RightHand 0.584726 -0.000000 5.919231
RightHandThumb1 -24.326973 -0.000000 -32.862282
LeftUpLeg 9.446361 -6.140587 -2.266297
LeftLeg -8.846759 -0.000000 0.000000
LeftFoot -13.183897 25.613934 -3.029704
LeftToeBase 18.868681 -0.000000 -0.000000
RightUpLeg -3.247207 42.553725 5.198327
RightLeg 109.312313 -0.000000 -0.000000
RightFoot 53.586379 -11.291461 -9.457906
RightToeBase -3.745058 -0.000000 0.000000
1306
root -2.643328 35.290473 -10.920968 -1.755039 15.619112 -9.626875
Spine -2.044851 -18.112725 12.412538
Head 3.571648 0.410531 -5.737748
LeftShoulder -22.945627 14.486922 -9.741555
LeftArm 25.552284 -22.469107 -70.204665
LeftForeArm 4.814035 0.000000 124.601158
LeftHand 2.278529 -0.000000 14.634046
LeftHandThumb1 -26.253704 0.000000 33.147579
RightShoulder -7.262445 -7.596770 -0.564460
RightArm 0.864645 -24.489837 70.276324
RightForeArm -18.270779 -0.000000 21.067581
RightHand 0.518757 -0.000000 6.197459
RightHandThumb1 -24.326973 -0.000000 -32.862282
LeftUpLeg 9.341432 -6.365708 -2.223187
LeftLeg -8.887486 -0.000000 0.000000
LeftFoot -13.000842 25.327875 -2.919875
LeftToeBase 18.846547 -0.000000 -0.000000
RightUpLeg -3.383240 42.422953 4.876019
RightLeg 109.501310 -0.000000 -0.000000
RightFoot 53.866596 -11.079042 -9.309457
RightToeBase -4.557744 -0.000000 0.000000
1307
root -2.649923 35.298016 -10.934492 -1.823149 16.440776 -9.698443
Spine -2.091098 -18.761551 12.449140
Head 3.535986 0.189351 -5.732457
LeftShoulder -22.748800 14.276207 -9.615611
LeftArm 25.631824 -22.285884 -70.192345
LeftForeArm 4.928091 0.000000 124.341234
LeftHand 2.001320 -0.000000 14.738179
LeftHandThumb1 -26.253704 0.000000 33.147579
RightShoulder -7.335554 -7.675617 -0.491465
RightArm 0.739399 -24.275677 70.387884
RightForeArm -18.159089 -0.000000 20.958397
RightHand 0.572720 -0.000000 6.212291
RightHandThumb1 -24.326973 -0.000000 -32.862282
LeftUpLeg 9.282864 -6.593690 -2.135640
LeftLeg -8.924026 -0.000000 0.000000
LeftFoot -12.842509 24.977804 -2.775152
LeftToeBase 18.881471 -0.000000 -0.000000
RightUpLeg -3.394150 42.064706 4.677491
RightLeg 109.681557 -0.000000 -0.000000
RightFoot 54.083144 -10.828762 -9.356380
RightToeBase -5.128760 -0.000000 0.000000
1308
root -2.665733 35.307653 -10.958872 -1.887473 17.382485 -9.754058
Spine -2.080757 -19.476088 12.391551
Head 3.414704 -0.073842 -5.586839
LeftShoulder -22.499917 14.061897 -9.440341
LeftArm 25.746145 -22.082641 -70.168293
LeftForeArm 5.099843 0.000000 124.091731
LeftHand 2.068498 -0.000000 14.825751
LeftHandThumb1 -26.253704 0.000000 33.147579
RightShoulder -7.440096 -7.528640 -0.300367
RightArm 0.436889 -24.159932 70.504625
RightForeArm -18.230980 -0.000000 20.861093
RightHand 0.562162 -0.000000 7.018145
RightHandThumb1 -24.326973 -0.000000 -32.862282
LeftUpLeg 9.141697 -6.996289 -2.059535
LeftLeg -8.855610 -0.000000 0.000000
LeftFoot -12.712272 24.670295 -2.618486
LeftToeBase 18.956851 -0.000000 -0.000000
RightUpLeg -3.523533 41.528437 4.460284
RightLeg 109.888723 -0.000000 -0.000000
RightFoot 53.760231 -11.768425 -8.535835
RightToeBase -2.629458 -0.000000 0.000000
1309
root -2.673726 35.318146 -10.974894 -1.929724 18.122364 -9.849980
Spine -2.139000 -19.996005 12.461243
Head 3.352129 -0.303248 -5.556413
LeftShoulder -22.315636 13.913196 -9.329464
LeftArm 25.851551 -21.808822 -70.228735
LeftForeArm 5.431570 -0.000000 123.902375
LeftHand 1.965148 -0.000000 15.013740
LeftHandThumb1 -26.253704 0.000000 33.147579
RightShoulder -7.516744 -7.491923 -0.199584
RightArm 0.182638 -24.050473 70.624596
RightForeArm -18.181649 -0.000000 20.742711
RightHand 0.597322 -0.000000 7.339916
RightHandThumb1 -24.326973 -0.000000 -32.862282
LeftUpLeg 9.045471 -7.175390 -1.946865
LeftLeg -8.889715 -0.000000 0.000000
LeftFoot -12.558264 24.338299 -2.519576
LeftToeBase 18.973946 -0.000000 -0.000000
RightUpLeg -3.724040 40.993109 4.199968
RightLeg 110.247966 -0.000000 -0.000000
RightFoot 54.622290 -10.648134 -9.338983
RightToeBase -5.460106 -0.000000 0.000000
1310
root -2.680828 35.328531 -10.990205 -1.955858 18.792755 -9.949879
Spine -2.218314 -20.446717 12.555441
Head 3.297397 -0.530645 -5.536859
LeftShoulder -22.130895 13.740030 -9.221700
LeftArm 25.897572 -21.552499 -70.234504
LeftForeArm 5.540973 -0.000000 123.712283
LeftHand 1.990122 -0.000000 14.922100
LeftHandThumb1 -26.253704 0.000000 33.147579
RightShoulder -7.584911 -7.501695 -0.109609
RightArm -0.021955 -23.913130 70.720835
RightForeArm -18.198188 -0.000000 20.618252
RightHand 0.525936 -0.000000 7.548710
RightHandThumb1 -24.326973 -0.000000 -32.862282
LeftUpLeg 8.930968 -7.374569 -1.837680
LeftLeg -8.899561 -0.000000 0.000000
LeftFoot -12.433612 24.088522 -2.436083
LeftToeBase 18.951493 -0.000000 -0.000000
RightUpLeg -3.969947 40.493267 3.924316
RightLeg 110.542321 -0.000000 -0.000000
RightFoot 54.764019 -10.836314 -9.352359
RightToeBase -5.156184 -0.000000 0.000000
1311
root -2.689610 35.339315 -11.000025 -1.988503 19.328873 -10.065915
Spine -2.289141 -20.738467 12.658101
Head 3.266294 -0.787821 -5.503644
LeftShoulder -21.949470 13.575661 -9.119541
LeftArm 25.921410 -21.252000 -70.199788
LeftForeArm 5.602303 -0.000000 123.557561
LeftHand 2.327357 -0.000000 14.646964
LeftHandThumb1 -26.253704 0.000000 33.147579
RightShoulder -7.689426 -7.503343 -0.042436
RightArm -0.212908 -23.869005 70.831763
RightForeArm -18.098318 0.000000 20.435842
RightHand 0.493158 -0.000000 7.783015
RightHandThumb1 -24.326973 -0.000000 -32.862282
LeftUpLeg 8.873412 -7.471750 -1.711268
LeftLeg -8.982778 -0.000000 0.000000
LeftFoot -12.293775 23.869065 -2.386543
LeftToeBase 18.978233 -0.000000 -0.000000
RightUpLeg -4.234163 40.080660 3.678380
RightLeg 110.861794 -0.000000 -0.000000
RightFoot 54.885328 -10.864624 -9.407791
RightToeBase -5.082987 -0.000000 0.000000
1312
root -2.697938 35.350463 -11.014264 -1.998609 19.834139 -10.164392
Spine -2.372397 -20.975801 12.747745
Head 3.243316 -1.066754 -5.468787
LeftShoulder -21.733755 13.481873 -9.037748
LeftArm 26.006177 -21.037706 -70.206824
LeftForeArm 5.768902 -0.000000 123.406489
LeftHand 2.338041 -0.000000 14.761499
LeftHandThumb1 -26.253704 0.000000 33.147579
RightShoulder -7.788683 -7.501137 0.042770
RightArm -0.439783 -23.710356 70.960464
RightForeArm -18.152572 -0.000000 20.307843
RightHand 0.439149 -0.000000 8.218760
RightHandThumb1 -24.326973 -0.000000 -32.862282
LeftUpLeg 8.760887 -7.640051 -1.608608
LeftLeg -8.993580 -0.000000 0.000000
LeftFoot -12.213644 23.711475 -2.399183
LeftToeBase 19.003924 -0.000000 -0.000000
RightUpLeg -4.582651 39.728787 3.393503
RightLeg 111.069277 -0.000000 -0.000000
RightFoot 53.942330 -12.910555 -8.011244
RightToeBase -0.128820 -0.000000 0.000000
1313
root -2.711311 35.361805 -11.019485 -2.071723 20.245602 -10.274531
Spine -2.370559 -21.166816 12.796873
Head 3.221406 -1.307212 -5.403992
LeftShoulder -21.556940 13.379088 -8.946226
LeftArm 26.063194 -20.863363 -70.152992
LeftForeArm 5.749437 0.000000 123.241011
LeftHand 2.421054 0.000000 14.651128
LeftHandThumb1 -26.253704 0.000000 33.147579
RightShoulder -7.869518 -7.472761 0.147924
RightArm -0.658482 -23.562289 71.090225
RightForeArm -18.240869 -0.000000 20.132035
RightHand 0.398667 -0.000000 8.667295
RightHandThumb1 -24.326973 -0.000000 -32.862282
LeftUpLeg 8.738719 -7.721132 -1.484325
LeftLeg -9.020872 -0.000000 0.000000
LeftFoot -12.109031 23.513082 -2.313123
LeftToeBase 19.011279 -0.000000 -0.000000
RightUpLeg -4.787876 39.290918 3.236898
RightLeg 111.588726 -0.000000 -0.000000
RightFoot 55.160541 -10.902952 -9.573117
RightToeBase -5.887548 -0.000000 0.000000
1314
root -2.725289 35.373466 -11.026656 -2.097870 20.553229 -10.398029
Spine -2.422796 -21.257835 12.892322
Head 3.210488 -1.541062 -5.355865
LeftShoulder -21.394941 13.324596 -8.880178
LeftArm 26.135334 -20.663361 -70.141786
LeftForeArm 5.949707 -0.000000 123.116876
LeftHand 2.045973 0.000000 14.898202
LeftHandThumb1 -26.253704 0.000000 33.147579
RightShoulder -7.949760 -7.480836 0.223146
RightArm -0.826381 -23.383637 71.215434
RightForeArm -18.429338 -0.000000 19.927853
RightHand 0.494162 -0.000000 8.963967
RightHandThumb1 -24.326973 -0.000000 -32.862282
LeftUpLeg 8.674965 -7.793506 -1.350440
LeftLeg -9.054542 -0.000000 0.000000
LeftFoot -12.049558 23.406669 -2.312542
LeftToeBase 19.021033 -0.000000 -0.000000
RightUpLeg -5.122852 39.046205 3.044254
RightLeg 111.961204 -0.000000 -0.000000
RightFoot 55.213158 -10.965458 -9.547361
RightToeBase -5.796104 -0.000000 0.000000
1315
root -2.741605 35.384776 -11.026214 -2.165059 20.814601 -10.506022
Spine -2.423191 -21.300820 12.921593
Head 3.223094 -1.781437 -5.268700
LeftShoulder -21.227357 13.305014 -8.798219
LeftArm 26.207416 -20.503245 -70.109461
LeftForeArm 6.003442 -0.000000 122.988630
LeftHand 2.100539 -0.000000 14.827651
LeftHandThumb1 -26.253704 0.000000 33.147579
RightShoulder -8.045491 -7.487552 0.325151
RightArm -1.000034 -23.273263 71.342876
RightForeArm -18.523421 -0.000000 19.750741
RightHand 0.460188 -0.000000 9.359888
RightHandThumb1 -24.326973 -0.000000 -32.862282
LeftUpLeg 8.676240 -7.937215 -1.234759
LeftLeg -9.089244 -0.000000 0.000000
LeftFoot -11.971336 23.390285 -2.292927
LeftToeBase 19.007277 -0.000000 -0.000000
RightUpLeg -5.388079 38.836487 2.927338
RightLeg 112.331989 -0.000000 -0.000000
RightFoot 55.295362 -10.735876 -9.682256
RightToeBase -5.874795 -0.000000 0.000000
